# xmcd CD database file
#
# Track frame offsets:
#	151
#	22107
#	40398
#	59473
#	84162
#	102565
#	125730
#	142743
#	171707
#	188271
#	210105
#	223707
#	242052
#	263563
#	277427
#
# Disc length: 3988 seconds
#
# Revision: 5
# Processed by: cddbd v1.5.2PL0 Copyright (c) Steve Scherf et al.
# Submitted via: CDex 1.70beta2
#
DISCID=de0f920f
DTITLE=Paul Rodgers - Muddy Water Blues
DYEAR=1993
DGENRE=Blues
TTITLE0=Muddy Water Blues (Acoustic Version) - Buddy Guy
TTITLE1=Louisiana Blues - Trevor Rabin
TTITLE2=I Can't Be Satisfied - Brian Setzer
TTITLE3=Rollin' Stone - Jeff Beck
TTITLE4=Good Morning Little School Girl (Part 1) - Jeff Beck
TTITLE5=I'm Your Hoochie Coochie Man - Steve Miller
TTITLE6=She's Alright - Trevor Rabin
TTITLE7=Standing Around Crying - David Gilmour
TTITLE8=The Hunter - Slash
TTITLE9=She Moves Me - Gary Moore
TTITLE10=I'm Ready - Brian May
TTITLE11=I Just Want To Make Love To You - Jeff Beck
TTITLE12=Born Under A Bad Sign - Neal Schon
TTITLE13=Good Morning Little School Girl (Part 2) - Richie Sambora
TTITLE14=Muddy Water Blues (Electric version) - Neal Schon
EXTD=\n YEAR: 1993
EXTT0=
EXTT1=
EXTT2=
EXTT3=
EXTT4=
EXTT5=
EXTT6=
EXTT7=
EXTT8=
EXTT9=
EXTT10=
EXTT11=
EXTT12=
EXTT13=
EXTT14=
PLAYORDER=
